<svg version="1.1" id="Layer_1" xmlns="http://www.w3.org/2000/svg" xmlns:xlink="http://www.w3.org/1999/xlink" x="0px" y="0px"
	 width="100%" viewBox="0 0 240 240" enable-background="new 0 0 240 240" xml:space="preserve">
<path fill="#FEFEFE" opacity="1.000000" stroke="none" 
	d="
M137.000000,241.000000 
	C137.000000,241.000000 136.500000,241.000000 136.127533,240.652740 
	C134.170059,240.536972 132.585022,240.768494 131.000000,241.000000 
	C124.312355,241.000000 117.624710,241.000000 110.293999,240.694672 
	C108.433960,240.592896 107.216980,240.796448 106.000000,241.000000 
	C106.000000,241.000000 105.500000,241.000000 105.189293,240.653229 
	C103.189651,238.322617 101.838821,238.229645 101.000000,241.000000 
	C100.555557,241.000000 100.111107,241.000000 99.332153,240.687241 
	C98.789436,239.821747 98.581223,239.268997 98.373001,238.716263 
	C97.915337,239.477509 97.457672,240.238754 97.000000,241.000000 
	C65.020874,241.000000 33.041748,241.000000 1.031311,241.000000 
	C1.031311,161.073074 1.031311,81.146126 1.031311,1.109589 
	C80.999924,1.109589 160.999939,1.109589 240.999969,1.116765 
	C241.000000,32.436855 241.000000,63.749771 240.659607,95.567291 
	C239.670288,96.648979 239.021378,97.226051 238.372467,97.803123 
	C239.248322,98.202080 240.124161,98.601036 241.000000,99.000000 
	C241.000000,99.750000 241.000000,100.500000 240.723419,101.647858 
	C240.199448,102.653214 239.952057,103.260704 239.802719,104.252632 
	C240.267197,105.758049 240.633591,106.879021 241.000000,108.000000 
	C241.000000,117.354225 241.000000,126.708458 240.669464,136.578781 
	C240.559296,138.396591 240.779648,139.698288 241.000000,141.000000 
	C241.000000,174.260986 241.000000,207.521988 241.000000,241.000000 
	C207.312744,241.000000 173.625031,241.000000 139.430969,240.700958 
	C138.516830,240.082718 138.109024,239.763519 137.701218,239.444321 
	C137.467468,239.962875 137.233734,240.481445 137.000000,241.000000 
M201.536667,210.174286 
	C201.275803,210.372253 201.079453,210.621124 200.280701,211.036392 
	C199.205551,211.968994 198.130417,212.901581 197.055267,213.834183 
	C197.484528,214.217911 197.913803,214.601624 198.343079,214.985352 
	C199.252869,213.672562 200.162659,212.359772 201.485184,210.802673 
	C201.742325,210.598938 201.933319,210.345383 202.317947,209.899445 
	C202.196274,209.911438 202.074615,209.923447 201.536667,210.174286 
M180.096527,226.344254 
	C180.195999,226.382568 180.295456,226.420883 180.394928,226.459198 
	C180.289490,226.289780 180.184052,226.120346 179.924713,225.680740 
	C179.823990,225.639847 179.723267,225.598953 179.622543,225.558075 
	C179.732132,225.731781 179.841705,225.905502 180.096527,226.344254 
M168.442520,231.770355 
	C168.126694,231.714996 167.810852,231.659622 167.495026,231.604263 
	C167.476990,231.897003 167.458939,232.189743 167.440903,232.482483 
	C167.987152,232.349014 168.533401,232.215546 169.573761,231.994080 
	C169.818176,231.673599 170.062592,231.353134 170.307007,231.032669 
	C170.031494,230.895279 169.755981,230.757904 169.480453,230.620514 
	C169.292877,231.053757 169.105286,231.487015 168.442520,231.770355 
M158.710129,236.010193 
	C159.316071,235.680450 159.922012,235.350708 160.527939,235.020950 
	C160.236588,234.736282 159.945236,234.451614 159.653900,234.166962 
	C159.084946,234.753601 158.515991,235.340256 157.472473,235.790237 
	C157.159058,235.726669 156.845657,235.663116 156.532242,235.599548 
	C156.500198,235.887665 156.468140,236.175766 156.436096,236.463882 
	C156.967453,236.324600 157.498810,236.185333 158.710129,236.010193 
M129.212433,233.781265 
	C130.864212,233.572693 132.513489,233.341476 134.168121,233.158798 
	C197.331421,226.184937 243.053589,166.147552 232.740555,103.718964 
	C222.704346,42.966213 169.021042,2.292306 107.557167,8.872022 
	C42.199844,15.868531 -4.017602,80.704796 10.585213,144.909363 
	C23.168346,200.233963 70.434830,235.953674 129.212433,233.781265 
M235.373108,155.312073 
	C234.610626,157.958542 233.848129,160.605011 233.085632,163.251480 
	C233.730209,163.416046 234.374786,163.580627 235.019363,163.745209 
	C235.665710,160.676147 236.312073,157.607101 236.958420,154.538040 
	C236.537018,154.594254 236.115601,154.650467 235.373108,155.312073 
M229.207153,176.494110 
	C229.618118,174.870041 230.029083,173.245972 230.440063,171.621902 
	C228.674026,172.882095 227.888580,174.466583 227.244949,176.106705 
	C227.206680,176.204254 228.305679,176.748123 229.207153,176.494110 
M226.241180,179.437103 
	C225.048660,180.838455 223.856155,182.239807 222.663635,183.641159 
	C223.159546,183.969147 223.655457,184.297134 224.151352,184.625122 
	C224.989868,183.046387 225.828369,181.467651 226.241180,179.437103 
M212.980728,200.391556 
	C213.578247,199.557358 214.175751,198.723145 214.773270,197.888947 
	C214.225250,197.658783 213.677246,197.428635 213.129227,197.198486 
	C212.894257,198.356369 212.659286,199.514252 212.980728,200.391556 
M217.638351,194.433212 
	C217.124847,194.165268 216.611359,193.897324 216.097839,193.629379 
	C215.876205,194.164017 215.654572,194.698654 215.432953,195.233307 
	C216.078278,195.141418 216.723618,195.049545 217.638351,194.433212 
M208.287613,205.540100 
	C208.399460,204.962738 208.511292,204.385376 208.623138,203.808014 
	C208.213226,203.802902 207.803329,203.797806 207.393417,203.792709 
	C207.491119,204.372787 207.588821,204.952850 208.287613,205.540100 
M229.928497,71.795952 
	C230.356857,72.341499 230.785233,72.887054 231.213593,73.432610 
	C231.477539,73.140297 231.741486,72.847992 232.005432,72.555687 
	C231.239349,72.132301 230.473251,71.708923 229.928497,71.795952 
M239.684479,144.318588 
	C239.394897,144.026947 239.105316,143.735291 238.815735,143.443634 
	C238.635391,143.975067 238.455048,144.506500 238.274719,145.037964 
	C238.670822,144.965591 239.066910,144.893219 239.684479,144.318588 
M220.457458,190.820007 
	C220.409256,190.388275 220.361038,189.956543 220.312836,189.524796 
	C219.941544,189.702728 219.570251,189.880661 219.198959,190.058609 
	C219.487106,190.441833 219.775269,190.825073 220.457458,190.820007 
M189.380585,220.189713 
	C189.990845,220.135162 190.601089,220.080627 191.211349,220.026077 
	C191.149612,219.770676 191.053497,219.289505 191.031174,219.292892 
	C190.491486,219.375076 189.959656,219.508987 189.380585,220.189713 
M186.795013,221.390747 
	C186.790741,221.785568 186.786469,222.180389 186.782196,222.575211 
	C186.946014,222.576584 187.252167,222.589005 187.253036,222.577744 
	C187.283463,222.185135 187.285156,221.790283 186.795013,221.390747 
M92.703995,238.567307 
	C92.989426,238.294861 93.274857,238.022415 93.560303,237.749985 
	C93.447327,237.631882 93.242378,237.404892 93.234657,237.411407 
	C92.933647,237.665649 92.650612,237.941177 92.703995,238.567307 
M62.548603,225.518829 
	C61.997814,225.445908 61.447025,225.372971 60.896240,225.300049 
	C60.885536,225.534485 60.874836,225.768936 60.864132,226.003372 
	C61.469994,226.003372 62.075851,226.003372 62.548603,225.518829 
M238.569427,150.296722 
	C238.295959,150.010208 238.022507,149.723679 237.749039,149.437134 
	C237.630554,149.550568 237.402771,149.756302 237.409363,149.764114 
	C237.664490,150.066254 237.941025,150.350311 238.569427,150.296722 
M53.396469,221.120926 
	C53.813625,221.074570 54.230782,221.028198 54.647938,220.981827 
	C54.475212,220.722290 54.223301,220.218231 54.143040,220.244247 
	C53.726376,220.379166 53.353500,220.649292 53.396469,221.120926 
M193.389618,217.202972 
	C193.784958,217.207123 194.180313,217.211258 194.575653,217.215393 
	C194.577209,217.051300 194.589737,216.744598 194.578720,216.743759 
	C194.185287,216.713501 193.789658,216.711823 193.389618,217.202972 
M232.202652,168.609863 
	C232.206802,168.214630 232.210968,167.819412 232.215134,167.424179 
	C232.051117,167.422623 231.744537,167.410110 231.743698,167.421082 
	C231.713440,167.814438 231.711746,168.210007 232.202652,168.609863 
M6.838365,156.050598 
	C6.586121,156.200851 6.206131,156.301605 6.122596,156.517212 
	C6.057339,156.685654 6.360074,156.996674 6.499285,157.244354 
	C6.638966,156.996399 6.778646,156.748444 6.838365,156.050598 
M222.312271,187.044144 
	C222.074936,186.900909 221.837601,186.757660 221.600266,186.614426 
	C221.512451,186.859131 221.424637,187.103851 221.336823,187.348557 
	C221.688919,187.389420 222.041016,187.430298 222.312271,187.044144 
M85.897583,236.702255 
	C86.167625,236.449341 86.442703,236.201111 86.694405,235.931091 
	C86.708572,235.915909 86.530212,235.721268 86.441460,235.610168 
	C86.158936,235.874588 85.876419,236.139008 85.897583,236.702255 
M76.817223,232.737030 
	C76.973976,232.623260 77.130722,232.509491 77.287476,232.395721 
	C77.069618,232.418640 76.851768,232.441544 76.817223,232.737030 
M182.367615,224.524918 
	C182.156586,224.470535 181.945541,224.416138 181.734512,224.361755 
	C181.870132,224.495270 182.005737,224.628769 182.367615,224.524918 
M184.524811,223.631668 
	C184.470673,223.841782 184.416534,224.051895 184.362396,224.262024 
	C184.495300,224.127014 184.628220,223.992004 184.524811,223.631668 
M33.475212,203.368652 
	C33.529388,203.158340 33.583565,202.948029 33.637733,202.737717 
	C33.504711,202.872849 33.371693,203.007980 33.475212,203.368652 
M235.174820,82.754738 
	C235.119583,82.587982 235.064346,82.421234 235.009094,82.254478 
	C234.955215,82.422241 234.901337,82.589996 235.174820,82.754738 
M40.524685,209.630753 
	C40.470459,209.841415 40.416233,210.052063 40.362007,210.262726 
	C40.495239,210.127335 40.628468,209.991959 40.524685,209.630753 
M233.629608,79.475273 
	C233.840912,79.529648 234.052216,79.584023 234.263519,79.638397 
	C234.127716,79.504768 233.991898,79.371147 233.629608,79.475273 
M236.588135,89.517113 
	C236.588135,89.517113 236.477127,89.583305 236.588135,89.517113 
M74.412773,232.482986 
	C74.412773,232.482986 74.522957,232.417374 74.412773,232.482986 
M232.412415,77.482948 
	C232.412415,77.482948 232.523193,77.416969 232.412415,77.482948 
M7.586909,160.516907 
	C7.586909,160.516907 7.477042,160.582230 7.586909,160.516907 
z"/>
<path fill="#FDFDFE" opacity="1.000000" stroke="none" 
	d="
M101.399994,241.000000 
	C101.838821,238.229645 103.189651,238.322617 104.939293,240.653229 
	C103.933327,241.000000 102.866661,241.000000 101.399994,241.000000 
z"/>
<path fill="#FDFDFE" opacity="1.000000" stroke="none" 
	d="
M241.000000,98.625000 
	C240.124161,98.601036 239.248322,98.202080 238.372467,97.803123 
	C239.021378,97.226051 239.670288,96.648979 240.659607,96.035950 
	C241.000000,96.750000 241.000000,97.500000 241.000000,98.625000 
z"/>
<path fill="#FDFDFE" opacity="1.000000" stroke="none" 
	d="
M241.000000,140.600006 
	C240.779648,139.698288 240.559296,138.396591 240.669464,137.047440 
	C241.000000,138.066666 241.000000,139.133347 241.000000,140.600006 
z"/>
<path fill="#53748D" opacity="1.000000" stroke="none" 
	d="
M131.416656,241.000000 
	C132.585022,240.768494 134.170059,240.536972 135.877533,240.652740 
	C134.611115,241.000000 133.222214,241.000000 131.416656,241.000000 
z"/>
<path fill="#FDFDFE" opacity="1.000000" stroke="none" 
	d="
M97.333328,241.000000 
	C97.457672,240.238754 97.915337,239.477509 98.373001,238.716263 
	C98.581223,239.268997 98.789436,239.821747 98.998825,240.687241 
	C98.555557,241.000000 98.111107,241.000000 97.333328,241.000000 
z"/>
<path fill="#6A879C" opacity="1.000000" stroke="none" 
	d="
M106.399994,241.000000 
	C107.216980,240.796448 108.433960,240.592896 109.825470,240.694672 
	C108.933327,241.000000 107.866653,241.000000 106.399994,241.000000 
z"/>
<path fill="#FDFDFE" opacity="1.000000" stroke="none" 
	d="
M137.333328,241.000000 
	C137.233734,240.481445 137.467468,239.962875 137.701218,239.444321 
	C138.109024,239.763519 138.516830,240.082718 138.962311,240.700958 
	C138.555557,241.000000 138.111099,241.000000 137.333328,241.000000 
z"/>
<path fill="#355C79" opacity="1.000000" stroke="none" 
	d="
M241.000000,107.599991 
	C240.633591,106.879021 240.267197,105.758049 240.129822,104.254333 
	C240.572571,103.914391 240.786285,103.957191 241.000000,104.000000 
	C241.000000,105.066658 241.000000,106.133324 241.000000,107.599991 
z"/>
<path fill="#FDFDFE" opacity="1.000000" stroke="none" 
	d="
M241.000000,103.666672 
	C240.786285,103.957191 240.572571,103.914391 240.031769,103.869888 
	C239.952057,103.260704 240.199448,102.653214 240.723419,102.022858 
	C241.000000,102.444443 241.000000,102.888893 241.000000,103.666672 
z"/>
<path fill="#0D3C5F" opacity="1.000000" stroke="none" 
	d="
M128.739578,233.811813 
	C70.434830,235.953674 23.168346,200.233963 10.585213,144.909363 
	C-4.017602,80.704796 42.199844,15.868531 107.557167,8.872022 
	C169.021042,2.292306 222.704346,42.966213 232.740555,103.718964 
	C243.053589,166.147552 197.331421,226.184937 134.168121,233.158798 
	C132.513489,233.341476 130.864212,233.572693 128.739578,233.811813 
M91.532234,136.977448 
	C96.997520,143.471497 103.044868,149.573746 107.757454,156.574493 
	C112.101212,163.027328 117.524902,162.296143 124.201019,161.652573 
	C113.574173,149.531906 103.420639,137.951065 93.053741,126.126892 
	C102.804161,115.118958 112.309135,104.388115 122.109917,93.323326 
	C112.053101,92.474586 112.052765,92.474304 106.258698,99.355728 
	C105.079414,100.756310 103.918274,102.172440 102.723885,103.559990 
	C97.062508,110.136864 91.392502,116.706306 85.725578,123.278404 
	C85.349304,123.115898 84.973030,122.953392 84.596756,122.790886 
	C84.596756,112.923424 84.596756,103.055962 84.596756,93.324203 
	C81.437828,93.324203 78.868240,93.324203 76.401062,93.324203 
	C76.401062,116.392067 76.401062,139.110458 76.401062,161.663452 
	C79.310646,161.663452 81.882957,161.663452 84.942123,161.663452 
	C84.942123,150.965195 84.942123,140.619446 84.942123,129.230515 
	C87.478882,132.204956 89.278259,134.314804 91.532234,136.977448 
M142.550858,100.336128 
	C145.981003,100.056984 145.124313,102.618240 145.129608,104.410767 
	C145.173752,119.390244 145.154922,134.369904 145.155075,149.349503 
	C145.155106,153.459106 145.155075,157.568695 145.155075,161.789764 
	C148.301559,161.789764 150.887878,161.789764 154.060211,161.789764 
	C154.060211,141.226013 154.060211,120.881172 154.060211,100.104706 
	C160.902695,100.104706 167.161148,100.104706 173.447418,100.104706 
	C173.447418,97.568230 173.447418,95.478905 173.447418,93.373268 
	C157.327438,93.373268 141.478302,93.373268 125.783615,93.373268 
	C125.783615,95.842941 125.783615,97.916954 125.783615,100.330635 
	C131.265503,100.330635 136.401443,100.330635 142.550858,100.336128 
z"/>
<path fill="#FDFDFE" opacity="1.000000" stroke="none" 
	d="
M235.533661,155.009384 
	C236.115601,154.650467 236.537018,154.594254 236.958420,154.538040 
	C236.312073,157.607101 235.665710,160.676147 235.019363,163.745209 
	C234.374786,163.580627 233.730209,163.416046 233.085632,163.251480 
	C233.848129,160.605011 234.610626,157.958542 235.533661,155.009384 
z"/>
<path fill="#FDFDFE" opacity="1.000000" stroke="none" 
	d="
M229.041306,176.789215 
	C228.305679,176.748123 227.206680,176.204254 227.244949,176.106705 
	C227.888580,174.466583 228.674026,172.882095 230.440063,171.621902 
	C230.029083,173.245972 229.618118,174.870041 229.041306,176.789215 
z"/>
<path fill="#FDFDFE" opacity="1.000000" stroke="none" 
	d="
M226.454025,179.663010 
	C225.828369,181.467651 224.989868,183.046387 224.151352,184.625122 
	C223.655457,184.297134 223.159546,183.969147 222.663635,183.641159 
	C223.856155,182.239807 225.048660,180.838455 226.454025,179.663010 
z"/>
<path fill="#FDFDFE" opacity="1.000000" stroke="none" 
	d="
M201.072449,211.046997 
	C200.162659,212.359772 199.252869,213.672562 198.343079,214.985352 
	C197.913803,214.601624 197.484528,214.217911 197.055267,213.834183 
	C198.130417,212.901581 199.205551,211.968994 200.642242,211.013275 
	C201.003769,210.990158 201.072449,211.046997 201.072449,211.046997 
z"/>
<path fill="#FDFDFE" opacity="1.000000" stroke="none" 
	d="
M212.702515,200.531845 
	C212.659286,199.514252 212.894257,198.356369 213.129227,197.198486 
	C213.677246,197.428635 214.225250,197.658783 214.773270,197.888947 
	C214.175751,198.723145 213.578247,199.557358 212.702515,200.531845 
z"/>
<path fill="#FDFDFE" opacity="1.000000" stroke="none" 
	d="
M217.503647,194.695435 
	C216.723618,195.049545 216.078278,195.141418 215.432953,195.233307 
	C215.654572,194.698654 215.876205,194.164017 216.097839,193.629379 
	C216.611359,193.897324 217.124847,194.165268 217.503647,194.695435 
z"/>
<path fill="#FDFDFE" opacity="1.000000" stroke="none" 
	d="
M207.987061,205.536514 
	C207.588821,204.952850 207.491119,204.372787 207.393417,203.792709 
	C207.803329,203.797806 208.213226,203.802902 208.623138,203.808014 
	C208.511292,204.385376 208.399460,204.962738 207.987061,205.536514 
z"/>
<path fill="#FDFDFE" opacity="1.000000" stroke="none" 
	d="
M157.947052,235.926910 
	C158.515991,235.340256 159.084946,234.753601 159.653900,234.166962 
	C159.945236,234.451614 160.236588,234.736282 160.527954,235.020966 
	C159.922012,235.350708 159.316071,235.680450 158.349594,235.998169 
	C157.989059,235.986160 157.947037,235.926895 157.947052,235.926910 
z"/>
<path fill="#FDFDFE" opacity="1.000000" stroke="none" 
	d="
M229.817841,71.540741 
	C230.473251,71.708923 231.239349,72.132301 232.005432,72.555687 
	C231.741486,72.847992 231.477539,73.140297 231.213593,73.432610 
	C230.785233,72.887054 230.356857,72.341499 229.817841,71.540741 
z"/>
<path fill="#FDFDFE" opacity="1.000000" stroke="none" 
	d="
M239.573746,144.569717 
	C239.066910,144.893219 238.670822,144.965591 238.274719,145.037964 
	C238.455048,144.506500 238.635391,143.975067 238.815735,143.443634 
	C239.105316,143.735291 239.394897,144.026947 239.573746,144.569717 
z"/>
<path fill="#FDFDFE" opacity="1.000000" stroke="none" 
	d="
M220.260437,191.014160 
	C219.775269,190.825073 219.487106,190.441833 219.198959,190.058594 
	C219.570251,189.880661 219.941544,189.702728 220.312836,189.524811 
	C220.361038,189.956543 220.409256,190.388275 220.260437,191.014160 
z"/>
<path fill="#FDFDFE" opacity="1.000000" stroke="none" 
	d="
M189.403503,219.911621 
	C189.959656,219.508987 190.491486,219.375076 191.031174,219.292892 
	C191.053497,219.289505 191.149612,219.770676 191.211349,220.026093 
	C190.601089,220.080627 189.990845,220.135162 189.403503,219.911621 
z"/>
<path fill="#FDFDFE" opacity="1.000000" stroke="none" 
	d="
M187.042969,221.393250 
	C187.285156,221.790283 187.283463,222.185135 187.253036,222.577744 
	C187.252167,222.589005 186.946014,222.576584 186.782196,222.575211 
	C186.786469,222.180389 186.790741,221.785568 187.042969,221.393250 
z"/>
<path fill="#FDFDFE" opacity="1.000000" stroke="none" 
	d="
M92.534615,238.390610 
	C92.650612,237.941177 92.933647,237.665649 93.234657,237.411407 
	C93.242378,237.404892 93.447327,237.631882 93.560295,237.749985 
	C93.274857,238.022415 92.989426,238.294861 92.534615,238.390610 
z"/>
<path fill="#FDFDFE" opacity="1.000000" stroke="none" 
	d="
M62.615158,225.761108 
	C62.075851,226.003372 61.469994,226.003372 60.864132,226.003372 
	C60.874836,225.768936 60.885536,225.534485 60.896240,225.300049 
	C61.447025,225.372971 61.997814,225.445908 62.615158,225.761108 
z"/>
<path fill="#FDFDFE" opacity="1.000000" stroke="none" 
	d="
M238.392090,150.466736 
	C237.941025,150.350311 237.664490,150.066254 237.409363,149.764114 
	C237.402771,149.756302 237.630554,149.550568 237.749054,149.437134 
	C238.022507,149.723679 238.295959,150.010208 238.392090,150.466736 
z"/>
<path fill="#FDFDFE" opacity="1.000000" stroke="none" 
	d="
M53.180920,220.996628 
	C53.353500,220.649292 53.726376,220.379166 54.143040,220.244247 
	C54.223301,220.218231 54.475212,220.722290 54.647934,220.981827 
	C54.230782,221.028198 53.813625,221.074570 53.180920,220.996628 
z"/>
<path fill="#FDFDFE" opacity="1.000000" stroke="none" 
	d="
M193.391968,216.954559 
	C193.789658,216.711823 194.185287,216.713501 194.578720,216.743759 
	C194.589737,216.744598 194.577209,217.051300 194.575653,217.215393 
	C194.180313,217.211258 193.784958,217.207123 193.391968,216.954559 
z"/>
<path fill="#FDFDFE" opacity="1.000000" stroke="none" 
	d="
M231.954376,168.607559 
	C231.711746,168.210007 231.713440,167.814438 231.743698,167.421082 
	C231.744537,167.410110 232.051117,167.422623 232.215134,167.424179 
	C232.210968,167.819412 232.206802,168.214630 231.954376,168.607559 
z"/>
<path fill="#FDFDFE" opacity="1.000000" stroke="none" 
	d="
M169.079651,232.082077 
	C168.533401,232.215546 167.987152,232.349014 167.440903,232.482483 
	C167.458939,232.189743 167.476990,231.897003 167.495026,231.604263 
	C167.810852,231.659622 168.126694,231.714996 168.720856,231.885513 
	C168.999191,232.000671 169.079651,232.082077 169.079651,232.082077 
z"/>
<path fill="#FDFDFE" opacity="1.000000" stroke="none" 
	d="
M6.878345,156.275543 
	C6.778646,156.748444 6.638966,156.996399 6.499289,157.244354 
	C6.360074,156.996674 6.057339,156.685654 6.122596,156.517212 
	C6.206131,156.301605 6.586121,156.200851 6.878345,156.275543 
z"/>
<path fill="#FDFDFE" opacity="1.000000" stroke="none" 
	d="
M222.352692,187.257660 
	C222.041016,187.430298 221.688919,187.389420 221.336823,187.348557 
	C221.424637,187.103851 221.512451,186.859131 221.600266,186.614426 
	C221.837601,186.757660 222.074936,186.900909 222.352692,187.257660 
z"/>
<path fill="#FDFDFE" opacity="1.000000" stroke="none" 
	d="
M158.009613,236.016113 
	C157.498810,236.185333 156.967453,236.324600 156.436096,236.463882 
	C156.468140,236.175766 156.500198,235.887665 156.532242,235.599548 
	C156.845657,235.663116 157.159058,235.726669 157.709747,235.858566 
	C157.947037,235.926895 157.989059,235.986160 158.009613,236.016113 
z"/>
<path fill="#FDFDFE" opacity="1.000000" stroke="none" 
	d="
M85.745743,236.552841 
	C85.876419,236.139008 86.158936,235.874588 86.441460,235.610168 
	C86.530212,235.721268 86.708572,235.915909 86.694405,235.931091 
	C86.442703,236.201111 86.167625,236.449341 85.745743,236.552841 
z"/>
<path fill="#FDFDFE" opacity="1.000000" stroke="none" 
	d="
M168.958435,231.960480 
	C169.105286,231.487015 169.292877,231.053757 169.480469,230.620514 
	C169.755981,230.757904 170.031494,230.895279 170.307007,231.032654 
	C170.062592,231.353134 169.818176,231.673599 169.326706,232.038086 
	C169.079651,232.082077 168.999191,232.000671 168.958435,231.960480 
z"/>
<path fill="#FDFDFE" opacity="1.000000" stroke="none" 
	d="
M76.725571,232.600739 
	C76.851768,232.441544 77.069618,232.418640 77.287476,232.395721 
	C77.130722,232.509491 76.973976,232.623260 76.725571,232.600739 
z"/>
<path fill="#FDFDFE" opacity="1.000000" stroke="none" 
	d="
M182.254486,224.643600 
	C182.005737,224.628769 181.870132,224.495270 181.734512,224.361755 
	C181.945541,224.416138 182.156586,224.470535 182.254486,224.643600 
z"/>
<path fill="#FDFDFE" opacity="1.000000" stroke="none" 
	d="
M184.642975,223.744324 
	C184.628220,223.992004 184.495300,224.127014 184.362396,224.262024 
	C184.416534,224.051895 184.470673,223.841782 184.642975,223.744324 
z"/>
<path fill="#FDFDFE" opacity="1.000000" stroke="none" 
	d="
M33.356941,203.255890 
	C33.371693,203.007980 33.504711,202.872849 33.637737,202.737717 
	C33.583565,202.948029 33.529388,203.158340 33.356941,203.255890 
z"/>
<path fill="#FDFDFE" opacity="1.000000" stroke="none" 
	d="
M235.011139,82.756248 
	C234.901337,82.589996 234.955215,82.422241 235.009094,82.254478 
	C235.064346,82.421234 235.119583,82.587982 235.011139,82.756248 
z"/>
<path fill="#FDFDFE" opacity="1.000000" stroke="none" 
	d="
M40.643188,209.743652 
	C40.628468,209.991959 40.495239,210.127335 40.362007,210.262726 
	C40.416233,210.052063 40.470459,209.841415 40.643188,209.743652 
z"/>
<path fill="#FDFDFE" opacity="1.000000" stroke="none" 
	d="
M233.742844,79.356400 
	C233.991898,79.371147 234.127716,79.504768 234.263519,79.638397 
	C234.052216,79.584023 233.840912,79.529648 233.742844,79.356400 
z"/>
<path fill="#FDFDFE" opacity="1.000000" stroke="none" 
	d="
M179.951279,226.079224 
	C179.841705,225.905502 179.732132,225.731781 179.622543,225.558075 
	C179.723267,225.598953 179.823990,225.639847 179.966400,225.844482 
	C180.008072,226.008240 179.951279,226.079224 179.951279,226.079224 
z"/>
<path fill="#FDFDFE" opacity="1.000000" stroke="none" 
	d="
M180.043350,225.979584 
	C180.184052,226.120346 180.289490,226.289780 180.394928,226.459198 
	C180.295456,226.420883 180.195999,226.382568 180.023895,226.211731 
	C179.951279,226.079224 180.008072,226.008240 180.043350,225.979584 
z"/>
<path fill="#FDFDFE" opacity="1.000000" stroke="none" 
	d="
M236.532623,89.550209 
	C236.477127,89.583305 236.588135,89.517113 236.532623,89.550209 
z"/>
<path fill="#FDFDFE" opacity="1.000000" stroke="none" 
	d="
M200.975708,210.955536 
	C201.079453,210.621124 201.275803,210.372253 201.768982,210.083603 
	C202.001312,209.992920 202.058197,210.041977 202.058197,210.041977 
	C201.933319,210.345383 201.742325,210.598938 201.278809,210.924835 
	C201.072449,211.046997 201.003769,210.990158 200.975708,210.955536 
z"/>
<path fill="#FDFDFE" opacity="1.000000" stroke="none" 
	d="
M74.467865,232.450180 
	C74.522957,232.417374 74.412773,232.482986 74.467865,232.450180 
z"/>
<path fill="#FDFDFE" opacity="1.000000" stroke="none" 
	d="
M232.467804,77.449959 
	C232.523193,77.416969 232.412415,77.482948 232.467804,77.449959 
z"/>
<path fill="#FDFDFE" opacity="1.000000" stroke="none" 
	d="
M201.977127,209.964188 
	C202.074615,209.923447 202.196274,209.911438 202.188080,209.970703 
	C202.058197,210.041977 202.001312,209.992920 201.977127,209.964188 
z"/>
<path fill="#FDFDFE" opacity="1.000000" stroke="none" 
	d="
M7.531976,160.549561 
	C7.477042,160.582230 7.586909,160.516907 7.531976,160.549561 
z"/>
<path fill="#F3F5F7" opacity="1.000000" stroke="none" 
	d="
M91.304932,136.701050 
	C89.278259,134.314804 87.478882,132.204956 84.942123,129.230515 
	C84.942123,140.619446 84.942123,150.965195 84.942123,161.663452 
	C81.882957,161.663452 79.310646,161.663452 76.401062,161.663452 
	C76.401062,139.110458 76.401062,116.392067 76.401062,93.324203 
	C78.868240,93.324203 81.437828,93.324203 84.596756,93.324203 
	C84.596756,103.055962 84.596756,112.923424 84.596756,122.790886 
	C84.973030,122.953392 85.349304,123.115898 85.725578,123.278404 
	C91.392502,116.706306 97.062508,110.136864 102.723885,103.559990 
	C103.918274,102.172440 105.079414,100.756310 106.258698,99.355728 
	C112.052765,92.474304 112.053101,92.474586 122.109917,93.323326 
	C112.309135,104.388115 102.804161,115.118958 93.053741,126.126892 
	C103.420639,137.951065 113.574173,149.531906 124.201019,161.652573 
	C117.524902,162.296143 112.101212,163.027328 107.757454,156.574493 
	C103.044868,149.573746 96.997520,143.471497 91.304932,136.701050 
z"/>
<path fill="#F6F8F9" opacity="1.000000" stroke="none" 
	d="
M142.044128,100.333382 
	C136.401443,100.330635 131.265503,100.330635 125.783615,100.330635 
	C125.783615,97.916954 125.783615,95.842941 125.783615,93.373268 
	C141.478302,93.373268 157.327438,93.373268 173.447418,93.373268 
	C173.447418,95.478905 173.447418,97.568230 173.447418,100.104706 
	C167.161148,100.104706 160.902695,100.104706 154.060211,100.104706 
	C154.060211,120.881172 154.060211,141.226013 154.060211,161.789764 
	C150.887878,161.789764 148.301559,161.789764 145.155075,161.789764 
	C145.155075,157.568695 145.155106,153.459106 145.155075,149.349503 
	C145.154922,134.369904 145.173752,119.390244 145.129608,104.410767 
	C145.124313,102.618240 145.981003,100.056984 142.044128,100.333382 
z"/>
</svg>